<svg xmlns="http://www.w3.org/2000/svg" viewBox="-160 -55 1320 1555" >
  <defs>
    <style>
      * {
        stroke-width: 55;
        stroke: #F5F9FF;
      }
      path {
        shape-rendering: auto;
        fill: #04416D;
      }
    </style>

  </defs>
  <path d="M500,500h-200l-400 800l200 -75l75 200l400 -800" />
  <path d="M500,500h200l400 800l-200 -75l-75 200l-400 -800" />
  <path d="M500 999.2A213 213 0 0 0 331.7 916c-28 0-55.3 5.5-81.3 16.3A211.7 211.7 0 0 0 67.7 749.6c37-88.8 9.5-191.2-66.9-249.6a211.7 211.7 0 0 0 67-249.6A211.7 211.7 0 0 0 250.3 67.7c26 10.8 53.3 16.3 81.3 16.3A213 213 0 0 0 500 .8 213 213 0 0 0 668.3 84c28 0 55.4-5.5 81.3-16.3a211.7 211.7 0 0 0 182.7 182.7A211.7 211.7 0 0 0 999.2 500a211.7 211.7 0 0 0-67 249.6 211.7 211.7 0 0 0-182.6 182.7 210.4 210.4 0 0 0-81.3-16.3A213 213 0 0 0 500 999.2Z" />
  <circle cx="500" cy="500" r="250" fill="none" stroke-width="75" stroke="white" />
</svg>
